<svg width="32" height="32" viewBox="183 -1 37 37" fill="none" xmlns="http://www.w3.org/2000/svg">
<path d="M190.897 0C191.085 0.0469412 194.982 0.328539 196.766 2.1123C197.564 2.91028 197.845 3.89626 197.938 4.78809C198.549 4.03707 199.347 3.2393 200.474 2.48828C200.708 2.34746 200.99 2.3942 201.131 2.62891C201.272 2.86356 201.225 3.14533 200.99 3.28613C199.066 4.55353 198.173 5.9145 197.798 6.99414V7.04102C197.751 7.04102 197.751 7.04123 197.751 7.08789C197.516 7.69792 197.47 8.21437 197.47 8.54297C197.516 8.54318 197.517 8.58984 197.563 8.58984C197.939 8.54291 198.362 8.49609 198.737 8.49609C201.507 8.49625 204.182 9.85822 206.06 12.1582C206.341 12.2521 206.67 12.4393 206.951 12.6738C206.951 11.9698 207.092 11.0313 207.562 10.1865C208.172 9.10688 209.299 8.30815 210.801 7.93262C211.035 7.88577 211.27 8.02701 211.364 8.30859C211.458 8.54328 211.27 8.82514 211.035 8.87207C209.768 9.20066 208.876 9.81042 208.359 10.7021C208.031 11.2654 207.891 11.923 207.891 12.4863C208.125 12.2986 208.407 12.1574 208.735 12.0166C210.519 11.3126 212.303 12.4393 212.819 13.2842C212.866 13.3311 213.007 13.5193 213.147 13.707C214.18 14.9744 216.622 18.0252 216.903 22.4375C217.232 27.7419 213.148 29.5264 213.007 29.5264C212.983 29.5498 212.972 29.5616 212.96 29.5674L212.679 29.6025C212.55 29.6201 212.373 29.6435 212.162 29.667C211.27 30.418 210.19 30.8875 209.017 31.0283C208.782 31.0752 208.547 31.0752 208.312 31.0752C206.717 31.0751 205.121 30.4651 203.713 29.4326C202.211 30.4184 200.473 30.9814 198.689 30.9814C198.314 30.9814 197.892 30.9346 197.517 30.8877C197.47 30.9346 197.375 30.9814 197.281 30.9814C190.287 30.9813 185.922 26.7096 185.922 19.7627C185.922 13.8012 190.616 8.91858 196.437 8.54297C196.437 8.26144 196.483 7.93294 196.577 7.51074C196.296 7.51078 195.967 7.55762 195.639 7.55762C194.653 7.55761 193.385 7.3226 192.446 6.38379C190.664 4.6009 190.381 0.661717 190.381 0.516602C190.381 0.375778 190.429 0.234507 190.522 0.140625C190.616 0.0469651 190.757 4.01913e-05 190.897 0ZM198.689 9.43555C193.761 9.43582 189.724 14.083 189.724 19.7627C189.724 25.3953 193.761 30.0417 198.689 30.042C200.192 30.042 201.695 29.6203 202.962 28.8223C201.084 27.1324 199.582 24.5969 199.019 21.6396C198.174 17.2742 199.77 13.2842 202.915 11.876H202.962C203.057 11.8755 203.573 11.6885 204.37 11.7354C202.774 10.2802 200.755 9.43555 198.689 9.43555ZM207.421 14.5049C205.778 12.2986 203.712 12.6737 203.337 12.7676C202.023 13.7064 202.305 17.556 203.103 20.7949C203.854 23.7521 205.262 26.0052 207.608 27.8828C209.204 29.1502 212.303 28.7276 212.772 28.6807C213.196 28.4453 216.199 26.8957 215.917 22.4844C215.682 18.3539 213.382 15.491 212.396 14.2705C212.209 14.0359 212.068 13.8946 211.975 13.7539C211.646 13.2376 210.284 12.346 209.017 12.8623C208.125 13.2377 208.125 13.7535 208.172 13.9883C208.407 14.2699 209.111 15.1149 209.205 16.1006C210.378 16.4293 211.834 17.556 211.928 19.7148C212.069 20.419 212.162 21.2646 212.162 22.0156C212.162 23.189 211.88 24.2214 210.801 24.3623H210.566C209.064 24.3623 206.858 22.4844 206.576 20.3721C206.389 18.8702 206.764 17.2276 207.515 16.4766C207.749 16.2419 207.984 16.1007 208.312 16.0537C208.172 15.3027 207.468 14.5518 207.468 14.5518V14.5049H207.421ZM211.552 25.3955C211.693 25.1609 211.974 25.0663 212.209 25.207L213.711 26.0527C213.946 26.1936 214.039 26.4753 213.945 26.71C213.851 26.8505 213.711 26.9443 213.523 26.9443C213.43 26.9443 213.383 26.9442 213.289 26.8975L211.739 26.0527C211.505 25.9119 211.411 25.6302 211.552 25.3955ZM212.726 24.5498C212.82 24.3623 213.101 24.2685 213.336 24.3623L214.368 24.8789C214.603 25.0197 214.696 25.3016 214.556 25.4424C214.462 25.6298 214.321 25.7236 214.134 25.7236C214.087 25.7236 213.992 25.7237 213.945 25.6768L212.913 25.1602C212.725 25.0662 212.632 24.7845 212.726 24.5498Z" fill="#D3590B"/>
</svg>
